<svg version="1.2" baseProfile="tiny-ps" xmlns="http://www.w3.org/2000/svg" viewBox="0 0 60 60" width="60" height="60">
	<title>Vector-svg</title>
	<style>
		tspan { white-space:pre }
		.shp0 { fill: #ff2d2d } 
	</style>
	<path id="Layer" fill-rule="evenodd" class="shp0" d="M8.79 8.79C14.41 3.16 22.04 0 30 0C37.96 0 45.59 3.16 51.21 8.79C56.84 14.41 60 22.04 60 30C60 37.96 56.84 45.59 51.21 51.21C45.59 56.84 37.96 60 30 60C22.04 60 14.41 56.84 8.79 51.21C3.16 45.59 0 37.96 0 30C0 22.04 3.16 14.41 8.79 8.79ZM28.12 43.13C28.12 43.62 28.32 44.1 28.67 44.45C29.03 44.8 29.5 45 30 45C30.5 45 30.97 44.8 31.33 44.45C31.68 44.1 31.87 43.62 31.87 43.13L31.88 21.4L39.92 29.45C40.1 29.63 40.3 29.77 40.53 29.86C40.76 29.95 41 30 41.25 30C41.5 30 41.74 29.95 41.97 29.86C42.2 29.77 42.4 29.63 42.58 29.45C42.75 29.28 42.89 29.07 42.98 28.84C43.08 28.62 43.13 28.37 43.13 28.13C43.13 27.88 43.08 27.63 42.98 27.41C42.89 27.18 42.75 26.97 42.58 26.8L31.33 15.55C31.15 15.37 30.95 15.23 30.72 15.14C30.49 15.05 30.25 15 30 15C29.75 15 29.51 15.05 29.28 15.14C29.05 15.23 28.85 15.37 28.67 15.55L17.42 26.8C17.25 26.97 17.11 27.18 17.02 27.41C16.92 27.63 16.87 27.88 16.87 28.13C16.87 28.37 16.92 28.62 17.02 28.84C17.11 29.07 17.25 29.28 17.42 29.45C17.6 29.63 17.8 29.77 18.03 29.86C18.26 29.95 18.5 30 18.75 30C19 30 19.24 29.95 19.47 29.86C19.7 29.77 19.9 29.63 20.08 29.45L28.13 21.4L28.12 43.13Z" />
</svg>